<svg width="249" height="185" viewBox="0 0 249 185" fill="none" xmlns="http://www.w3.org/2000/svg">
<mask id="mask0_75_5" style="mask-type:alpha" maskUnits="userSpaceOnUse" x="0" y="0" width="249" height="185">
<rect width="248.171" height="185" fill="#D9D9D9"/>
</mask>
<g mask="url(#mask0_75_5)">
<rect x="-58.6587" y="40.6097" width="103.78" height="103.78" rx="31.5854" stroke="black" stroke-width="9.02439"/>
<rect x="203.049" y="40.6097" width="103.78" height="103.78" rx="31.5854" stroke="black" stroke-width="9.02439"/>
<rect x="72.1948" y="40.6097" width="103.78" height="103.78" rx="31.5854" stroke="black" stroke-width="9.02439"/>
<path d="M126.191 64.1333C125.45 62.205 122.722 62.205 121.98 64.1333L117.565 75.6126C116.504 78.3696 115.974 79.7482 115.15 80.9077C114.419 81.9354 113.521 82.8333 112.493 83.5641C111.334 84.3886 109.955 84.9188 107.198 85.9791L95.7189 90.3943C93.7907 91.1359 93.7907 93.864 95.7189 94.6057L107.198 99.0208C109.955 100.081 111.334 100.611 112.493 101.436C113.521 102.167 114.419 103.065 115.15 104.092C115.974 105.252 116.504 106.63 117.565 109.387L121.98 120.867C122.722 122.795 125.45 122.795 126.191 120.867L130.606 109.387C131.667 106.63 132.197 105.252 133.022 104.092C133.752 103.065 134.65 102.167 135.678 101.436C136.837 100.611 138.216 100.081 140.973 99.0208L152.452 94.6057C154.381 93.864 154.381 91.1359 152.452 90.3943L140.973 85.9791C138.216 84.9188 136.837 84.3886 135.678 83.5641C134.65 82.8333 133.752 81.9354 133.022 80.9077C132.197 79.7482 131.667 78.3696 130.606 75.6126L126.191 64.1333Z" fill="black"/>
</g>
</svg>
